<?xml version="1.0" standalone="no"?>
<!DOCTYPE svg PUBLIC "-//W3C//DTD SVG 20010904//EN"
 "http://www.w3.org/TR/2001/REC-SVG-20010904/DTD/svg10.dtd">
<svg version="1.0" xmlns="http://www.w3.org/2000/svg"
 width="3200.000000pt" height="3200.000000pt" viewBox="0 0 3200.000000 3200.000000"
 preserveAspectRatio="xMidYMid meet">
<metadata>
Created by potrace 1.16, written by Peter Selinger 2001-2019
</metadata>
<g transform="translate(0.000000,3200.000000) scale(0.100000,-0.100000)"
fill="#000000" stroke="none">
<path d="M29861 28305 c-77 -22 -133 -55 -282 -166 -176 -132 -253 -200 -664
-578 -895 -825 -1920 -1583 -3210 -2371 -553 -338 -857 -504 -1470 -806 -589
-289 -818 -397 -1360 -644 -281 -128 -568 -261 -640 -295 -399 -193 -647 -460
-760 -815 -15 -48 -54 -251 -90 -465 -98 -585 -161 -851 -280 -1173 -50 -137
-54 -166 -26 -220 25 -48 46 -66 166 -144 55 -36 124 -90 153 -122 48 -51 53
-60 47 -89 -15 -74 -30 -109 -60 -144 -28 -33 -36 -36 -81 -36 -41 1 -75 14
-216 87 -94 49 -179 86 -195 86 -64 0 -127 -87 -128 -178 l0 -54 66 -62 c91
-84 119 -128 119 -183 0 -52 -16 -87 -62 -129 -76 -72 -122 -70 -207 10 -72
69 -107 86 -173 86 -66 0 -121 -25 -216 -97 -41 -30 -94 -64 -119 -75 -59 -26
-83 -51 -83 -88 0 -44 17 -73 153 -259 118 -162 121 -168 189 -343 69 -179
118 -334 118 -370 0 -31 28 -76 51 -83 12 -4 157 -10 323 -14 286 -7 304 -8
354 -30 65 -29 122 -92 152 -169 71 -179 186 -288 378 -356 40 -14 84 -26 97
-26 54 0 135 108 135 179 0 19 -21 76 -49 135 -177 368 -182 508 -22 658 113
107 236 156 357 144 87 -9 272 -62 529 -151 292 -101 426 -139 630 -180 815
-163 1702 -160 2632 10 474 87 796 199 1058 369 201 131 481 387 589 539 90
127 114 245 67 335 -46 91 -104 99 -351 53 -85 -16 -659 -124 -1275 -239 -616
-116 -1185 -219 -1265 -231 -248 -34 -412 -44 -676 -38 -259 5 -375 18 -559
62 -55 13 -127 26 -160 30 -101 12 -135 40 -135 108 0 89 115 147 406 206 200
40 377 58 689 71 742 30 1257 96 1760 225 1110 285 1770 595 2345 1101 375
329 622 674 755 1054 31 89 36 115 33 171 -5 90 -42 150 -118 193 -51 29 -62
31 -150 30 -127 -1 -199 -28 -495 -190 -490 -266 -803 -416 -1211 -578 -902
-357 -1703 -618 -2494 -812 -124 -30 -240 -60 -258 -67 -58 -20 -107 -71 -147
-153 -78 -157 -174 -222 -520 -352 -429 -161 -1313 -412 -1450 -412 -117 0
-191 73 -334 328 -96 170 -180 258 -301 315 -54 26 -80 32 -155 35 -49 2 -113
0 -140 -5 -69 -13 -152 6 -182 42 -19 22 -23 38 -23 99 0 119 58 209 169 260
40 18 64 21 176 20 156 0 231 -17 360 -79 150 -72 269 -191 368 -368 76 -136
134 -177 249 -177 105 0 75 -9 1213 379 185 63 221 89 277 193 40 75 143 173
233 220 97 50 156 70 980 328 1020 319 1360 434 1795 605 1154 454 1833 990
2343 1853 204 344 331 687 354 954 10 121 -42 186 -182 223 -108 28 -158 10
-316 -112 -689 -534 -1266 -897 -2104 -1324 -801 -408 -1531 -718 -2835 -1206
-509 -191 -649 -250 -813 -346 -214 -127 -438 -323 -576 -506 -87 -114 -182
-275 -231 -390 -78 -183 -139 -296 -195 -363 -30 -37 -65 -70 -76 -73 -14 -5
-36 3 -67 22 -111 68 -175 224 -142 343 5 19 55 116 111 215 56 99 135 248
176 330 123 246 193 351 320 479 244 248 436 342 1348 661 522 183 874 320
1442 564 538 231 1173 537 1568 757 910 506 1616 1015 1998 1439 442 491 713
1065 782 1654 21 174 20 437 -1 512 -18 62 -67 130 -113 153 -43 23 -111 27
-170 11z m-2432 -3101 c78 -32 130 -110 138 -204 9 -100 -38 -187 -129 -240
-94 -53 -192 -37 -272 46 -136 140 -83 355 104 415 33 11 114 2 159 -17z
m-5157 -2488 c68 -20 113 -60 148 -129 25 -50 30 -72 30 -131 0 -85 -21 -138
-73 -183 -34 -29 -105 -53 -161 -53 -90 0 -210 82 -242 165 -38 102 23 262
120 312 64 33 114 39 178 19z m3575 -31 c84 -35 125 -106 125 -216 1 -128 -65
-217 -177 -238 -181 -34 -324 118 -285 304 15 74 71 138 139 160 54 17 143 13
198 -10z m-14 -1780 c55 -26 123 -90 146 -138 69 -143 -56 -329 -220 -329
-114 0 -229 126 -229 252 0 46 30 116 67 160 67 78 148 97 236 55z"/>
<path d="M1995 28290 c-110 -16 -172 -95 -195 -248 -19 -122 14 -436 72 -677
142 -592 454 -1107 989 -1630 378 -369 803 -674 1474 -1057 1008 -576 2000
-1026 3485 -1583 637 -238 908 -390 1156 -647 163 -168 240 -289 401 -632 149
-316 161 -359 128 -458 -26 -75 -156 -218 -198 -218 -5 0 -21 13 -36 29 -31
33 -339 545 -481 801 -103 184 -152 253 -236 329 -134 123 -192 152 -761 382
-889 359 -1566 640 -1933 802 -1195 526 -2271 1131 -3015 1697 -307 233 -423
301 -547 322 -185 31 -291 -116 -258 -359 61 -462 446 -1110 962 -1620 508
-503 1092 -852 2093 -1253 683 -273 1330 -482 2010 -651 386 -96 444 -126 548
-281 30 -46 68 -95 83 -110 61 -56 150 -99 324 -154 96 -30 303 -97 460 -149
448 -147 696 -225 718 -225 25 0 69 49 112 126 158 280 347 445 577 505 115
30 273 36 348 14 108 -31 181 -139 192 -285 4 -54 2 -69 -14 -89 -18 -21 -31
-25 -129 -32 -238 -18 -366 -70 -499 -203 -47 -46 -103 -115 -130 -161 -62
-101 -176 -239 -223 -270 -48 -32 -132 -49 -199 -41 -68 8 -500 132 -788 226
-433 142 -840 297 -929 354 -67 43 -123 105 -175 194 -69 118 -91 130 -401
212 -836 220 -1607 473 -2300 755 -399 162 -606 255 -1065 478 -359 174 -670
315 -753 342 -77 25 -169 18 -216 -18 -104 -80 -123 -286 -45 -487 56 -146
227 -426 370 -605 569 -717 1389 -1141 2824 -1460 703 -156 1212 -223 2055
-270 321 -18 402 -31 512 -82 97 -45 133 -80 133 -133 0 -45 -23 -75 -69 -89
-17 -6 -110 -18 -206 -28 -212 -21 -791 -24 -1030 -5 -769 61 -1564 184 -2600
403 -322 68 -383 67 -453 -10 -62 -69 -71 -145 -27 -232 33 -64 177 -237 305
-364 257 -258 475 -392 826 -509 434 -145 886 -231 1389 -266 188 -13 679 -13
890 0 754 47 1229 145 1959 405 175 63 248 44 415 -103 122 -108 156 -166 156
-262 0 -72 -22 -130 -125 -333 -58 -115 -95 -200 -95 -219 0 -49 30 -98 79
-130 66 -42 118 -36 252 30 170 83 238 157 284 307 45 146 86 173 275 186 69
5 221 13 337 17 273 10 251 -6 303 222 20 88 108 327 150 410 10 19 55 87 101
150 138 191 169 240 169 265 0 38 -55 91 -183 177 -210 141 -218 141 -408 21
-91 -57 -137 -71 -181 -54 -63 24 -116 145 -96 218 17 63 54 102 134 140 40
19 78 41 85 49 30 36 -24 168 -84 205 -66 40 -125 25 -282 -73 -117 -73 -159
-87 -204 -68 -62 25 -96 87 -107 192 l-6 65 53 54 c30 30 95 79 144 109 186
111 207 143 171 260 -20 64 -98 270 -141 369 -90 212 -142 458 -165 791 -24
355 -69 549 -175 760 -57 113 -129 214 -218 303 -186 188 -423 323 -1152 653
-1192 540 -2351 1186 -3445 1919 -971 651 -2007 1459 -2776 2167 -184 169
-265 234 -368 298 -147 92 -283 134 -381 120z m2817 -3087 c87 -27 165 -125
176 -219 7 -67 -6 -112 -45 -155 -56 -62 -104 -83 -193 -83 -66 -1 -82 3 -130
30 -78 44 -114 103 -118 198 -6 103 35 183 112 223 64 34 107 35 198 6z m4932
-2487 c134 -41 212 -190 172 -328 -31 -108 -129 -166 -262 -155 -140 11 -214
97 -214 250 0 68 16 110 60 161 67 75 150 100 244 72z m-3437 -27 c83 -40 125
-115 127 -224 1 -127 -63 -211 -180 -235 -82 -17 -145 1 -206 57 -59 56 -83
115 -82 203 2 180 173 280 341 199z m-9 -1806 c65 -40 102 -112 102 -199 0
-75 -15 -116 -61 -169 -129 -147 -349 -66 -389 143 -19 104 38 211 133 246 65
24 157 15 215 -21z"/>
<path d="M20091 27930 c-28 -13 -108 -83 -235 -208 -371 -363 -674 -576 -1181
-827 -590 -292 -1150 -486 -2220 -771 -922 -245 -1331 -376 -1758 -560 -462
-200 -744 -384 -1050 -684 -214 -208 -392 -434 -538 -681 -161 -272 -223 -467
-239 -749 -11 -198 -21 -224 -186 -462 -186 -269 -298 -546 -339 -839 -19
-138 -19 -402 0 -534 20 -139 71 -387 101 -491 45 -157 146 -342 200 -366 36
-17 57 8 100 120 106 278 212 405 429 512 154 77 267 103 450 104 173 1 266
-15 410 -70 258 -100 414 -238 460 -408 26 -96 16 -305 -20 -436 -52 -189
-124 -338 -262 -540 -48 -70 -91 -121 -111 -133 -23 -14 -86 -26 -210 -42
-338 -44 -612 -103 -1022 -220 -283 -81 -405 -123 -449 -154 -46 -33 -69 -93
-81 -215 -12 -119 -29 -163 -82 -216 -32 -32 -84 -60 -112 -60 -7 0 -37 16
-66 36 -72 50 -117 55 -152 17 -41 -43 -124 -269 -169 -462 -58 -246 -82 -591
-60 -866 58 -729 279 -1447 671 -2185 154 -291 213 -463 246 -724 20 -157 15
-469 -11 -636 -58 -380 -196 -700 -424 -982 -34 -42 -152 -164 -262 -270 -111
-106 -212 -211 -225 -234 -69 -117 4 -212 182 -237 109 -16 195 1 319 63 367
183 702 584 891 1065 39 101 76 233 125 450 13 55 16 60 41 60 23 0 47 -24
154 -155 69 -85 130 -165 135 -178 6 -16 3 -48 -12 -105 -42 -164 -23 -320 56
-452 45 -75 91 -123 182 -191 83 -62 87 -72 102 -228 40 -412 -31 -732 -216
-981 -78 -104 -174 -193 -314 -292 -63 -44 -161 -113 -219 -153 -207 -144
-297 -217 -405 -325 -131 -132 -225 -260 -299 -410 -95 -190 -134 -336 -161
-595 -41 -397 -121 -704 -269 -1028 -70 -152 -173 -337 -244 -435 -102 -142
-288 -303 -475 -412 -26 -15 -49 -26 -51 -24 -6 7 110 395 277 929 254 811
341 1100 333 1108 -4 4 -74 7 -154 6 -665 -4 -1338 -445 -1648 -1079 -121
-248 -248 -656 -318 -1020 -85 -443 -104 -965 -51 -1405 21 -170 38 -225 85
-272 37 -37 39 -38 111 -38 86 0 187 24 472 111 485 148 956 351 1317 568 594
358 982 864 1105 1444 74 346 51 710 -70 1087 -25 77 -45 150 -45 162 0 39 81
261 141 387 80 167 172 302 287 423 111 115 188 175 517 398 327 222 414 289
525 400 124 124 215 246 290 391 57 111 130 307 130 350 0 25 27 79 40 79 5 0
78 -47 162 -104 84 -56 193 -125 242 -152 52 -29 93 -59 101 -74 23 -44 48
-451 42 -665 -8 -272 -47 -438 -148 -623 -101 -188 -179 -282 -539 -647 -358
-362 -448 -478 -536 -686 -109 -257 -128 -553 -58 -867 34 -150 49 -191 86
-229 37 -39 82 -55 150 -56 46 -1 54 3 83 35 43 47 63 133 75 336 16 253 40
386 96 542 87 243 215 406 484 615 212 165 326 265 404 352 75 86 195 260 271
395 28 49 53 88 57 88 46 0 92 -318 138 -955 35 -476 30 -468 264 -474 161 -4
207 6 225 46 13 28 14 36 37 363 8 118 23 298 34 400 10 102 24 239 29 305 10
112 32 219 60 289 l12 29 39 -67 c63 -107 86 -133 410 -461 611 -619 638 -650
730 -840 100 -205 131 -361 133 -660 2 -199 3 -212 25 -250 34 -60 82 -88 157
-93 58 -4 64 -2 97 27 63 55 129 233 163 440 25 149 17 389 -18 521 -86 331
-256 580 -606 893 -300 268 -405 384 -500 549 -146 255 -193 474 -194 898 0
229 12 301 75 430 44 91 157 202 263 257 122 63 183 85 205 73 12 -6 34 -57
65 -152 122 -369 302 -630 578 -837 28 -22 167 -110 307 -196 320 -197 388
-246 518 -370 205 -196 333 -395 433 -670 44 -123 46 -238 6 -370 -112 -369
-136 -770 -66 -1090 80 -360 255 -653 588 -985 469 -467 994 -756 1833 -1009
445 -134 568 -135 635 -7 28 54 64 460 70 802 6 336 -4 540 -38 779 -115 808
-491 1481 -1028 1839 -234 156 -537 261 -856 296 -160 17 -224 11 -247 -24
-16 -23 -7 -102 27 -238 33 -130 153 -528 175 -580 18 -44 273 -764 331 -938
33 -96 59 -188 59 -205 0 -66 -9 -63 -161 43 -181 126 -288 218 -356 307 -69
91 -223 395 -306 605 -75 190 -124 352 -160 530 -25 120 -33 181 -58 425 -33
321 -157 594 -363 801 -57 56 -169 147 -297 241 -495 361 -758 590 -869 757
-159 238 -218 501 -176 784 32 215 68 289 178 363 35 23 95 75 134 114 135
136 154 270 72 510 l-30 91 95 125 c95 125 200 233 220 226 6 -2 21 -50 33
-108 94 -444 369 -953 670 -1238 110 -104 237 -193 357 -250 134 -63 179 -74
271 -69 179 12 283 107 247 227 -11 39 -120 174 -181 225 -74 62 -238 234
-298 314 -279 367 -454 874 -469 1360 -12 375 49 617 253 997 349 650 541
1243 609 1876 53 499 13 1102 -97 1449 -63 198 -99 220 -222 136 -60 -40 -106
-36 -161 15 -82 75 -95 124 -64 240 6 26 9 58 5 73 -24 97 -334 291 -601 376
-194 61 -386 98 -660 125 -88 8 -173 18 -190 21 -52 10 -113 52 -139 97 -83
141 -146 568 -132 882 12 245 15 247 241 163 85 -31 97 -33 225 -33 116 0 145
3 203 23 37 13 67 26 67 28 0 2 -46 50 -103 107 -56 56 -133 143 -170 192
-117 156 -235 423 -254 575 -8 71 4 77 140 59 155 -19 480 -16 513 6 13 8 24
24 24 34 0 19 -30 51 -48 51 -6 0 -56 34 -110 75 -264 198 -433 463 -504 790
-14 66 -21 146 -25 298 -5 164 -9 210 -20 214 -7 3 -49 -2 -92 -11 -125 -25
-253 -30 -441 -16 -269 19 -391 16 -475 -10 -183 -57 -333 -185 -425 -361 -48
-92 -75 -191 -90 -329 -31 -281 -110 -501 -250 -689 -195 -263 -532 -471 -855
-528 -135 -23 -368 -14 -500 21 -208 54 -302 100 -610 296 -222 141 -331 200
-450 241 -80 27 -80 27 -50 39 17 6 91 30 165 52 74 22 191 58 260 80 202 65
267 51 469 -99 121 -90 237 -151 331 -174 80 -20 278 -17 365 5 411 106 697
492 672 909 -23 382 -293 704 -675 804 -131 34 -308 36 -427 4 -218 -59 -392
-205 -495 -416 -21 -44 -66 -172 -100 -285 -33 -113 -71 -225 -83 -250 -32
-65 -72 -84 -222 -104 -313 -41 -576 -143 -820 -315 -116 -82 -286 -256 -410
-419 -104 -138 -128 -163 -143 -147 -12 12 -3 167 19 295 48 285 147 547 305
810 126 209 184 260 296 260 30 0 75 -7 98 -15 109 -39 228 -4 300 86 138 175
145 402 16 535 -66 68 -130 89 -244 79 -66 -6 -81 -5 -95 10 -24 23 -17 48 69
222 204 415 533 773 944 1028 167 103 211 120 315 120 81 0 96 -3 155 -32 79
-39 175 -114 182 -141 9 -32 -16 -58 -120 -126 -53 -34 -133 -91 -177 -127
-112 -90 -355 -336 -355 -360 0 -23 34 -59 56 -59 9 0 33 10 53 22 45 29 633
302 891 415 635 278 1301 476 2794 829 105 25 312 74 459 110 261 64 317 71
317 40 0 -16 -145 -150 -300 -277 -434 -355 -882 -584 -1408 -718 -330 -85
-506 -168 -717 -341 -147 -121 -381 -387 -426 -485 -34 -74 -19 -121 82 -260
113 -156 158 -176 240 -110 262 211 414 280 677 307 93 9 133 8 302 -11 217
-24 334 -26 496 -10 372 36 844 192 1145 379 185 115 369 280 468 421 54 76
95 148 89 155 -2 2 -103 -24 -224 -57 -258 -70 -439 -106 -590 -115 l-109 -6
30 30 c17 16 194 179 395 363 531 483 732 673 852 806 333 367 535 696 667
1090 49 146 75 293 54 306 -5 3 -60 -40 -123 -95 -181 -158 -342 -285 -479
-376 -282 -188 -815 -411 -1026 -429 -68 -6 -70 -6 -55 13 66 86 181 215 334
376 99 105 219 231 264 282 290 317 446 575 528 874 33 118 35 113 -35 82z
m-4775 -4775 c121 -59 207 -180 227 -318 20 -142 -37 -271 -153 -346 -75 -49
-140 -65 -238 -59 -138 8 -250 86 -315 218 -29 59 -32 73 -31 155 0 70 5 101
22 138 49 108 129 187 230 228 70 29 181 22 258 -16z m1040 -2419 c3 -8 -18
-49 -46 -92 -61 -93 -115 -204 -175 -358 -24 -61 -90 -210 -148 -331 -264
-558 -366 -905 -386 -1315 -7 -139 -11 -172 -30 -207 -19 -39 -25 -43 -59 -43
-69 1 -194 28 -247 55 -94 46 -141 115 -222 328 -111 292 -190 402 -402 559
-27 20 -55 54 -70 83 -52 100 -27 254 51 320 37 31 51 31 262 0 191 -28 228
-25 269 25 33 38 67 130 67 178 0 20 -8 47 -18 59 -29 37 -128 90 -231 123
-153 49 -168 75 -106 185 36 66 53 75 140 75 41 0 1219 341 1270 367 41 22 70
17 81 -11z m2174 -1691 c239 -50 460 -175 639 -360 192 -198 291 -406 321
-670 39 -343 -53 -622 -299 -905 -99 -114 -177 -228 -227 -333 -59 -126 -38
-187 79 -226 127 -43 127 -57 1 -369 -96 -235 -129 -292 -169 -292 -9 0 -41
11 -73 24 -110 46 -273 61 -338 30 -63 -30 -94 -128 -55 -171 40 -43 136 -92
210 -107 87 -18 111 -36 111 -83 0 -64 -128 -288 -209 -368 l-41 -39 -68 12
c-37 7 -125 23 -197 37 -71 14 -174 28 -227 32 -82 5 -98 9 -98 23 0 38 35
134 100 270 38 80 107 251 153 380 199 551 399 1084 431 1147 43 85 115 187
196 278 175 196 258 395 248 595 -16 305 -236 537 -598 629 -211 53 -398 4
-544 -143 -87 -87 -174 -202 -257 -338 -75 -123 -216 -271 -326 -342 -39 -25
-162 -91 -272 -146 -377 -189 -450 -257 -515 -482 -108 -372 -116 -603 -40
-1075 l7 -43 -535 0 c-591 0 -565 -3 -555 62 3 18 15 87 27 153 19 99 23 158
24 335 1 241 -11 326 -66 459 -93 222 -225 341 -770 693 -169 109 -288 235
-445 473 -154 232 -241 316 -379 367 -86 31 -283 32 -409 0 -279 -70 -473
-255 -540 -512 -25 -97 -29 -213 -11 -300 26 -123 54 -166 197 -301 196 -184
283 -331 413 -699 294 -832 365 -1021 481 -1283 32 -70 56 -129 54 -131 -16
-12 -202 -79 -279 -100 -81 -22 -253 -56 -282 -56 -17 0 -110 95 -148 150 -48
70 -140 254 -140 279 0 25 16 37 70 51 111 28 236 75 257 96 31 31 32 98 0
145 -46 69 -187 89 -312 43 -110 -40 -140 -42 -171 -8 -31 35 -234 493 -241
545 -7 46 12 60 110 85 124 31 139 65 93 200 -44 129 -93 205 -225 347 -148
160 -224 278 -280 439 -80 229 -82 495 -6 717 139 409 507 709 952 776 242 37
479 -2 705 -116 180 -91 308 -196 490 -403 182 -206 358 -380 454 -449 242
-171 514 -262 824 -274 298 -11 604 49 868 173 176 82 301 197 534 489 142
179 250 291 357 369 273 199 637 285 941 221z m-154 -1000 c137 -81 163 -252
57 -385 -178 -225 -572 -799 -635 -925 -19 -38 -45 -104 -57 -145 -60 -201
-172 -295 -366 -307 -188 -13 -333 73 -412 243 -24 51 -27 72 -28 154 0 87 3
100 32 160 45 91 97 147 215 231 152 108 217 167 526 473 208 206 299 304 343
368 63 93 115 143 164 158 45 14 113 3 161 -25z m-4711 3 c39 -20 87 -74 123
-138 66 -120 145 -209 301 -341 36 -30 153 -132 260 -227 108 -96 241 -208
296 -249 168 -125 181 -136 219 -187 121 -162 78 -420 -90 -549 -69 -53 -154
-77 -270 -77 -125 0 -186 23 -263 99 -51 50 -72 84 -183 306 -216 431 -369
667 -592 915 -43 47 -89 104 -103 128 -71 120 14 295 162 333 35 9 111 2 140
-13z m2455 -2433 c271 -37 497 -137 750 -333 221 -172 240 -211 175 -367 -35
-85 -34 -148 3 -185 47 -46 96 -54 257 -40 77 6 162 16 189 21 142 27 210 0
263 -104 53 -106 87 -319 63 -406 -30 -113 -114 -119 -256 -18 -60 43 -138 82
-181 92 -66 14 -135 -31 -168 -108 -19 -47 -21 -149 -4 -208 18 -60 61 -100
235 -216 88 -58 158 -113 172 -133 35 -52 29 -106 -23 -235 -79 -192 -137
-265 -211 -265 -37 0 -70 34 -108 109 -53 104 -164 232 -223 257 -55 24 -87
17 -160 -32 -37 -26 -71 -52 -75 -58 -17 -25 -4 -74 83 -322 118 -335 121
-348 108 -396 -15 -58 -59 -101 -207 -199 -311 -208 -571 -299 -856 -299 -285
0 -531 80 -871 282 -160 95 -230 157 -241 213 -12 63 3 118 97 368 102 268
112 321 73 374 -51 69 -183 100 -241 57 -46 -34 -148 -162 -194 -243 -76 -136
-102 -149 -164 -80 -85 95 -192 293 -202 376 -10 92 26 131 201 214 183 86
236 158 236 317 -1 142 -65 222 -178 222 -51 -1 -104 -27 -195 -98 -90 -70
-121 -80 -171 -57 -53 25 -59 52 -53 232 5 172 20 243 63 301 58 76 147 83
389 32 173 -36 201 -34 261 27 96 96 98 147 11 256 -55 69 -36 118 89 228 223
196 457 321 730 390 190 48 357 58 534 34z"/>
<path d="M15759 15050 c-128 -33 -242 -104 -355 -222 -131 -137 -216 -283
-270 -464 -21 -71 -26 -111 -27 -199 -2 -225 77 -403 251 -567 171 -160 398
-235 631 -208 338 40 609 253 718 565 25 74 27 91 27 235 0 173 -11 232 -69
357 -44 96 -85 155 -164 236 -158 164 -376 261 -611 272 -52 2 -111 0 -131 -5z
m296 -504 c76 -34 139 -97 178 -175 30 -61 32 -73 32 -166 0 -89 -4 -106 -28
-157 -47 -95 -129 -156 -245 -178 -125 -25 -245 13 -332 106 -73 77 -104 150
-105 244 0 62 5 85 27 130 45 91 151 186 243 217 58 19 164 10 230 -21z"/>
<path d="M15430 12993 c-73 -39 -112 -96 -118 -172 -5 -66 10 -105 62 -159 67
-72 156 -96 229 -64 127 56 154 269 48 365 -69 62 -141 72 -221 30z"/>
<path d="M16182 12990 c-107 -67 -90 -314 27 -383 97 -57 212 -13 281 107 56
97 31 211 -58 263 -38 22 -60 28 -131 31 -74 3 -91 0 -119 -18z"/>
<path d="M9485 18649 c-103 -40 -304 -108 -426 -143 -287 -82 -534 -128 -994
-186 -712 -88 -934 -111 -1360 -135 -688 -39 -803 -64 -822 -178 -13 -81 71
-220 188 -309 80 -61 340 -192 479 -242 122 -44 294 -87 447 -113 87 -14 161
-18 378 -17 243 0 288 3 450 27 453 70 851 164 1280 304 222 73 251 85 259
110 3 10 10 61 17 113 20 176 94 421 209 699 23 58 27 76 18 83 -21 13 -70 8
-123 -13z"/>
<path d="M22302 18658 c-7 -7 -12 -21 -12 -31 0 -10 43 -146 95 -300 76 -229
97 -303 109 -393 23 -176 28 -182 241 -265 549 -216 1090 -328 1665 -345 260
-8 458 7 643 47 398 87 722 239 918 429 80 77 100 125 80 190 -35 119 -129
153 -446 165 -311 11 -900 63 -1530 135 -435 51 -692 97 -1085 195 -240 61
-574 156 -607 173 -28 15 -56 15 -71 0z"/>
<path d="M11045 18183 c-65 -10 -151 -36 -197 -59 -43 -22 -52 -33 -86 -101
-41 -86 -119 -173 -192 -216 -55 -32 -668 -301 -867 -381 -431 -172 -1004
-368 -1431 -491 -145 -41 -277 -82 -295 -91 -112 -57 -165 -186 -118 -290 25
-54 65 -83 186 -134 355 -148 619 -210 1025 -241 639 -48 1425 100 2110 398
234 102 247 127 190 366 -77 322 -129 773 -130 1118 0 107 -10 120 -102 124
-35 2 -76 1 -93 -2z"/>
<path d="M20693 18153 c-13 -2 -31 -15 -41 -28 -16 -21 -20 -50 -25 -232 -11
-352 -49 -665 -113 -938 -49 -208 -45 -239 38 -292 101 -63 442 -208 668 -283
506 -168 1174 -261 1581 -220 216 22 681 115 851 171 183 59 353 173 407 271
l26 47 -20 38 c-11 20 -46 59 -79 85 -97 78 -178 114 -367 163 -268 70 -514
157 -1014 358 -463 185 -654 256 -930 342 -274 86 -419 178 -501 318 -54 93
-96 139 -155 172 -51 28 -61 30 -179 32 -69 0 -135 -1 -147 -4z"/>
<path d="M11470 16212 c-19 -9 -64 -45 -101 -79 -97 -92 -118 -145 -129 -321
-5 -91 -17 -171 -34 -237 -120 -471 -361 -877 -691 -1165 -121 -106 -278 -220
-353 -257 -56 -28 -59 -28 -307 -34 -446 -11 -643 -66 -934 -260 -636 -424
-1155 -1059 -1572 -1924 -98 -204 -109 -233 -109 -285 0 -52 30 -86 93 -106
71 -21 934 -37 1332 -24 998 33 1511 179 1881 533 123 117 207 231 288 387
184 356 241 748 144 978 l-13 31 -175 -115 c-579 -380 -985 -574 -1422 -678
l-98 -24 0 32 c0 55 210 297 405 465 190 164 349 277 702 499 313 196 518 356
728 567 324 326 557 698 710 1135 70 202 74 177 -102 547 -81 172 -156 322
-166 333 -20 24 -32 25 -77 2z"/>
<path d="M20315 16220 c-12 -4 -27 -15 -34 -24 -17 -20 -65 -156 -127 -356
-124 -399 -113 -518 82 -915 126 -257 270 -461 451 -636 138 -134 221 -193
556 -393 787 -470 1041 -690 1335 -1151 38 -61 69 -111 68 -112 -5 -6 -191 38
-260 61 -146 50 -450 173 -556 226 -145 73 -225 119 -534 312 -147 92 -288
175 -313 184 -43 17 -45 17 -64 -3 -43 -42 -50 -299 -14 -493 74 -396 268
-733 550 -955 307 -241 684 -360 1335 -421 269 -25 911 -30 1378 -10 455 19
459 20 480 113 17 76 -1 136 -102 338 -264 530 -631 1054 -975 1395 -357 352
-762 569 -1261 675 -102 21 -198 33 -488 61 -60 6 -100 31 -271 167 -321 255
-560 542 -711 852 -113 231 -175 454 -200 715 -13 135 -22 169 -62 233 -41 65
-102 114 -162 132 -55 17 -72 18 -101 5z"/>
<path d="M6982 14476 c-64 -21 -107 -59 -138 -123 -35 -71 -40 -180 -11 -255
21 -55 79 -110 132 -128 57 -19 200 -9 250 17 88 46 135 126 135 230 0 69 -20
117 -73 171 -82 85 -198 119 -295 88z"/>
<path d="M24743 14481 c-122 -31 -205 -144 -205 -279 0 -76 25 -134 78 -180
100 -89 255 -83 363 14 60 54 91 116 91 185 0 106 -49 188 -140 234 -53 27
-137 39 -187 26z"/>
<path d="M23427 10140 c-77 -13 -156 -58 -225 -126 -110 -110 -157 -251 -133
-402 34 -224 182 -342 427 -342 271 0 422 112 454 338 26 188 -45 373 -176
461 -87 57 -242 89 -347 71z"/>
<path d="M8229 10127 c-175 -50 -292 -222 -293 -432 0 -247 165 -437 392 -452
202 -13 389 81 464 234 27 55 33 79 36 155 13 260 -93 428 -303 482 -86 22
-240 29 -296 13z"/>
<path d="M16177 8515 c-22 -21 -25 -62 -32 -375 -9 -419 -27 -572 -92 -790
-40 -132 -104 -300 -115 -300 -27 0 -97 196 -142 395 -22 100 -43 285 -61 540
-15 223 -32 413 -41 473 -3 19 -15 38 -29 48 -23 15 -27 15 -72 -12 -27 -15
-100 -80 -164 -143 -352 -352 -473 -778 -369 -1293 71 -349 211 -680 553
-1312 167 -307 204 -363 263 -391 59 -28 98 -10 186 85 144 155 267 347 413
645 298 609 408 1019 375 1397 -38 437 -196 754 -474 950 -120 84 -175 107
-199 83z"/>
<path d="M12935 6607 c-107 -36 -177 -95 -219 -187 -37 -80 -49 -150 -44 -264
9 -205 86 -318 251 -368 91 -27 242 -22 330 11 200 77 303 287 253 514 -30
133 -119 236 -246 283 -60 22 -269 29 -325 11z"/>
<path d="M18652 6601 c-195 -67 -327 -279 -294 -471 44 -245 257 -402 495
-362 248 42 415 256 378 485 -23 145 -106 258 -234 317 -111 52 -248 65 -345
31z"/>
<path d="M14361 4988 c-89 -15 -172 -107 -187 -205 -19 -129 76 -251 209 -269
58 -8 120 19 188 83 89 83 107 147 68 233 -51 113 -165 178 -278 158z"/>
<path d="M17391 4987 c-88 -34 -161 -137 -161 -229 0 -94 60 -198 140 -238 39
-21 129 -16 175 8 47 24 96 73 119 120 26 51 39 135 27 179 -31 113 -194 200
-300 160z"/>
</g>
</svg>
