<svg width="45" height="59" viewBox="0 0 45 59" fill="none" xmlns="http://www.w3.org/2000/svg">
<path fill-rule="evenodd" clip-rule="evenodd" d="M1.20624 35.7206C0.474812 37.5527 0.066194 39.5073 0 41.4906C0.100935 42.7138 0.500996 43.8896 1.16196 44.9056C2.40567 46.4071 3.90135 47.6597 5.57571 48.602L16.3897 56.1092C17.7204 57.2135 19.2166 58.0812 20.8182 58.6776C21.8581 58.9357 22.9416 58.9357 23.9814 58.6776C25.5937 58.0886 27.102 57.2268 28.4458 56.1268L39.3758 48.6152C41.0672 47.6701 42.5799 46.4124 43.8402 44.9034C44.5058 43.8819 44.9055 42.6975 45 41.4664C44.9282 39.467 44.5088 37.4978 43.7621 35.6546L34.2029 4.28444C33.9895 3.26848 33.6038 2.30041 33.0641 1.42581C32.671 0.927733 32.1631 0.541862 31.5879 0.304343C30.6269 0.0326548 29.6272 -0.0581905 28.6356 0.0360713H16.1894C15.1974 -0.0579514 14.1973 0.0351587 13.237 0.31094C12.6605 0.54798 12.1522 0.935693 11.7609 1.4368C11.2235 2.31145 10.8413 3.27974 10.6326 4.29543L1.20624 35.7206ZM29.1269 6.69448C29.5716 7.43158 29.8865 8.24548 30.0569 9.09793L38.2644 37.2093C35.1817 35.5419 31.8727 34.3755 28.4521 33.7503L23.1189 14.9273C23.0862 14.8162 23.0283 14.7148 22.9502 14.6317C22.8721 14.5487 22.7761 14.4863 22.6701 14.4499C22.5642 14.4135 22.4514 14.4042 22.3413 14.4226C22.2312 14.441 22.1268 14.4866 22.0371 14.5557C21.9167 14.6476 21.8285 14.7781 21.7862 14.9273L16.5141 33.7437C13.0774 34.3676 9.75301 35.5386 6.65753 37.2159L14.8988 9.10453C15.0675 8.2505 15.3833 7.43544 15.8309 6.69888C16.1573 6.28116 16.5794 5.95596 17.0582 5.75333C17.8649 5.52597 18.7041 5.45149 19.5361 5.53344H25.426C26.2586 5.45142 27.0986 5.5259 27.9059 5.75333C28.3862 5.95655 28.8091 6.28338 29.1354 6.70328L29.1269 6.69448ZM22.7731 40.5868C25.311 40.7401 27.8278 40.0276 29.9431 38.5572C30.1835 39.3465 30.2687 40.1782 30.1937 41.0027C30.1187 41.8271 29.885 42.6273 29.5065 43.3553C28.7285 44.7343 27.5993 45.8615 26.2442 46.612C24.8229 47.5531 23.5997 48.3711 23.5997 50.5415C23.598 51.2377 23.7487 51.9251 24.0405 52.5513C23.082 52.1363 22.263 51.4343 21.6868 50.5341C21.1107 49.634 20.8033 48.576 20.8035 47.4937V47.3596C20.8035 45.8577 20.8035 44.0084 18.7748 44.0084C18.492 44.0082 18.2119 44.0658 17.9502 44.1777C17.4237 44.4051 17.0051 44.8408 16.7862 45.3894C16.6774 45.6619 16.6208 45.954 16.6196 46.2491C15.2291 44.6657 14.4821 42.5814 14.5361 40.4351C14.5262 39.5062 14.6506 38.5811 14.9051 37.6908C15.7486 39.3554 18.954 40.5934 22.7731 40.5934V40.5868Z" fill="#FF5D01"/>
</svg>
