<svg width="72" height="19" viewBox="0 0 72 19" fill="none" xmlns="http://www.w3.org/2000/svg">
<path d="M0 13.2632V17.9345H3.2854V13.4673C3.2854 13.0336 3.45667 12.6146 3.76693 12.3085C4.07379 12.0025 4.49347 11.8276 4.92776 11.8276H8.2971C9.86674 11.8276 11.3742 11.2045 12.484 10.0931C13.5936 8.98544 14.2178 7.48058 14.2178 5.9138C14.2178 4.34699 13.5936 2.84212 12.484 1.73078C11.3742 0.62308 9.86674 0 8.29336 0H0V5.83728H3.2854V3.08625H8.07451C8.81907 3.08625 9.53099 3.3814 10.0564 3.9061C10.5821 4.4308 10.8777 5.14133 10.8777 5.88465C10.8777 6.62797 10.5821 7.33847 10.0564 7.86317C9.53099 8.38787 8.81907 8.68301 8.07451 8.68301H4.59576C3.99325 8.68301 3.39482 8.79961 2.83989 9.03281C2.28156 9.26237 1.77761 9.60124 1.35045 10.0276C0.923636 10.4539 0.587555 10.9604 0.354097 11.5142C0.1203 12.0644 0 12.662 0 13.2632Z" fill="#1B1340"/>
<path d="M14.7251 17.9343V10.8181C14.7251 7.91401 16.4225 5.60388 19.8211 5.60388C20.3648 5.59659 20.9088 5.65489 21.4417 5.78242V8.70835C21.0546 8.68284 20.7226 8.68284 20.5656 8.68284C18.7659 8.68284 17.9921 9.50633 17.9921 11.1752V17.9343H14.7251Z" fill="#1B1340"/>
<path d="M22.4199 11.9004C22.4199 8.32954 25.1212 5.60767 28.881 5.60767C32.6408 5.60767 35.342 8.32954 35.342 11.9004C35.342 15.4713 32.6408 18.2186 28.881 18.2186C25.1212 18.2186 22.4199 15.4676 22.4199 11.9004ZM32.1225 11.9004C32.1225 9.87085 30.7575 8.43157 28.881 8.43157C27.0011 8.43157 25.6397 9.86721 25.6397 11.9004C25.6397 13.9555 27.0048 15.3692 28.881 15.3692C30.7609 15.3692 32.1225 13.9518 32.1225 11.9004Z" fill="#1B1340"/>
<path d="M45.7891 11.9004C45.7891 8.32954 48.4903 5.60767 52.2501 5.60767C56.0062 5.60767 58.7074 8.32954 58.7074 11.9004C58.7074 15.4713 56.0062 18.2186 52.2501 18.2186C48.4903 18.2186 45.7891 15.4676 45.7891 11.9004ZM55.4879 11.9004C55.4879 9.87085 54.1229 8.43157 52.2464 8.43157C50.3702 8.43157 49.0051 9.86721 49.0051 11.9004C49.0051 13.9555 50.3702 15.3692 52.2464 15.3692C54.1229 15.3692 55.4879 13.9518 55.4879 11.9004Z" fill="#1B1340"/>
<path d="M60.4048 17.9344V11.0769C60.4048 7.89228 62.4383 5.604 66.0666 5.604C69.6694 5.604 71.7025 7.88863 71.7025 11.0769V17.9344H68.4609V11.332C68.4609 9.56111 67.6617 8.45341 66.0666 8.45341C64.4714 8.45341 63.6718 9.55747 63.6718 11.332V17.9344H60.4048Z" fill="#1B1340"/>
<path d="M44.8107 8.45703H41.2847V12.9534C41.2847 14.5202 41.8505 15.238 43.4711 15.238C43.6243 15.238 44.0114 15.238 44.5004 15.2125V17.8579C43.8327 18.0364 43.2414 18.1421 42.595 18.1421C39.8683 18.1421 38.0139 16.4988 38.0139 13.3907V8.45703H35.8237V5.86272H36.3715C36.5866 5.86272 36.8021 5.81899 36.9992 5.73883C37.2 5.65502 37.3788 5.53478 37.532 5.38174C37.6856 5.2287 37.8059 5.05016 37.8898 4.84975C37.9738 4.64935 38.0139 4.43801 38.0139 4.22303V1.77808H41.2809V5.86272H44.8073V8.45703H44.8107Z" fill="#1B1340"/>
</svg>
