<svg width="181" height="38" viewBox="0 0 181 38" fill="none" xmlns="http://www.w3.org/2000/svg">
<path d="M53.4594 23.1538V27.8251H56.7448V23.3579C56.7448 22.9243 56.9161 22.5052 57.2263 22.1992C57.5332 21.8931 57.9529 21.7182 58.3871 21.7182H61.7565C63.3261 21.7182 64.8336 21.0951 65.9434 19.9838C67.0529 18.8761 67.6772 17.3712 67.6772 15.8044C67.6772 14.2376 67.0529 12.7327 65.9434 11.6214C64.8336 10.5137 63.3261 9.89062 61.7527 9.89062H53.4594V15.7279H56.7448V12.9769H61.5339C62.2784 12.9769 62.9904 13.272 63.5157 13.7967C64.0414 14.3214 64.3371 15.032 64.3371 15.7753C64.3371 16.5186 64.0414 17.2291 63.5157 17.7538C62.9904 18.2785 62.2784 18.5736 61.5339 18.5736H58.0551C57.4526 18.5736 56.8542 18.6902 56.2993 18.9234C55.7409 19.153 55.237 19.4919 54.8098 19.9182C54.383 20.3445 54.0469 20.851 53.8135 21.4048C53.5797 21.955 53.4594 22.5526 53.4594 23.1538Z" fill="#1B1340"/>
<path d="M68.1846 27.8249V20.7087C68.1846 17.8046 69.882 15.4945 73.2805 15.4945C73.8243 15.4872 74.3683 15.5455 74.9012 15.673V18.599C74.5141 18.5735 74.1821 18.5735 74.0251 18.5735C72.2254 18.5735 71.4516 19.397 71.4516 21.0658V27.8249H68.1846Z" fill="#1B1340"/>
<path d="M75.8792 21.791C75.8792 18.2202 78.5804 15.4983 82.3402 15.4983C86.1 15.4983 88.8012 18.2202 88.8012 21.791C88.8012 25.3619 86.1 28.1093 82.3402 28.1093C78.5804 28.1093 75.8792 25.3582 75.8792 21.791ZM85.5817 21.791C85.5817 19.7615 84.2167 18.3222 82.3402 18.3222C80.4603 18.3222 79.099 19.7578 79.099 21.791C79.099 23.8461 80.464 25.2599 82.3402 25.2599C84.2201 25.2599 85.5817 23.8424 85.5817 21.791Z" fill="#1B1340"/>
<path d="M99.2484 21.791C99.2484 18.2202 101.95 15.4983 105.709 15.4983C109.465 15.4983 112.167 18.2202 112.167 21.791C112.167 25.3619 109.465 28.1093 105.709 28.1093C101.95 28.1093 99.2484 25.3582 99.2484 21.791ZM108.947 21.791C108.947 19.7615 107.582 18.3222 105.706 18.3222C103.829 18.3222 102.464 19.7578 102.464 21.791C102.464 23.8461 103.829 25.2599 105.706 25.2599C107.582 25.2599 108.947 23.8424 108.947 21.791Z" fill="#1B1340"/>
<path d="M113.864 27.825V20.9675C113.864 17.7829 115.898 15.4946 119.526 15.4946C123.129 15.4946 125.162 17.7793 125.162 20.9675V27.825H121.92V21.2226C121.92 19.4517 121.121 18.344 119.526 18.344C117.931 18.344 117.131 19.4481 117.131 21.2226V27.825H113.864Z" fill="#1B1340"/>
<path d="M98.27 18.3477H94.744V22.844C94.744 24.4108 95.3098 25.1287 96.9304 25.1287C97.0837 25.1287 97.4708 25.1287 97.9598 25.1032V27.7485C97.292 27.9271 96.7007 28.0327 96.0544 28.0327C93.3276 28.0327 91.4732 26.3894 91.4732 23.2813V18.3477H89.2831V15.7533H89.8309C90.046 15.7533 90.2614 15.7096 90.4585 15.6295C90.6594 15.5456 90.8381 15.4254 90.9914 15.2724C91.145 15.1193 91.2653 14.9408 91.3492 14.7404C91.4331 14.54 91.4732 14.3286 91.4732 14.1137V11.6687H94.7403V15.7533H98.2666V18.3477H98.27Z" fill="#1B1340"/>
<path d="M131.618 10.3533H136.208L140.51 20.8341C140.893 21.7123 141.221 22.6088 141.497 23.5235H141.542C141.818 22.6088 142.146 21.7087 142.529 20.8341L146.831 10.3533H151.42V27.831H148.095V16.1221C148.092 15.7358 148.11 15.3495 148.151 14.9669H148.095C147.992 15.3787 147.856 15.7832 147.683 16.1731L142.917 27.6269H140.159L135.378 16.1731C135.205 15.7795 135.057 15.3787 134.94 14.9669H134.888C134.925 15.3495 134.943 15.7358 134.94 16.1221V27.8347H131.618V10.3533Z" fill="#6D4AFF"/>
<path d="M162.792 16.3007C163.754 16.7999 164.55 17.5652 165.085 18.5018C165.656 19.5185 165.944 20.6701 165.921 21.8326V27.831H163.01L162.803 26.0308C162.423 26.6831 161.867 27.2151 161.196 27.5723C160.477 27.9404 159.674 28.1262 158.863 28.108C157.827 28.1189 156.809 27.8456 155.921 27.3172C155.022 26.7779 154.292 26.0053 153.805 25.0869C153.274 24.0738 153.009 22.9478 153.031 21.8071C153.016 20.6847 153.308 19.5805 153.872 18.6038C154.425 17.6564 155.225 16.8765 156.194 16.3481C157.197 15.7978 158.324 15.5135 159.471 15.5281C160.625 15.5062 161.767 15.7723 162.792 16.3007ZM161.727 24.369C162.361 23.7714 162.674 22.9295 162.674 21.8071C162.715 20.8888 162.387 19.9923 161.767 19.3108C161.473 19.0047 161.118 18.7642 160.724 18.5965C160.33 18.4289 159.91 18.3451 159.482 18.3451C159.054 18.3451 158.631 18.4289 158.24 18.5965C157.845 18.7642 157.492 19.0047 157.197 19.3108C156.607 20.0105 156.282 20.8924 156.282 21.8035C156.282 22.7145 156.607 23.5964 157.197 24.2961C157.488 24.6095 157.842 24.8537 158.24 25.0213C158.634 25.1853 159.062 25.2692 159.489 25.2582C159.902 25.2655 160.315 25.189 160.702 25.0359C161.082 24.8865 161.432 24.6569 161.727 24.369Z" fill="#6D4AFF"/>
<path d="M167.717 13.2907C167.521 13.1121 167.367 12.8971 167.26 12.6566C167.153 12.4161 167.101 12.1573 167.105 11.895C167.101 11.6326 167.156 11.3702 167.26 11.126C167.367 10.8819 167.521 10.6632 167.717 10.4846C168.104 10.1056 168.627 9.89062 169.173 9.89062C169.718 9.89062 170.242 10.1056 170.629 10.4846C170.824 10.6668 170.979 10.8855 171.082 11.126C171.185 11.3702 171.241 11.6289 171.237 11.895C171.241 12.1573 171.189 12.4161 171.082 12.6566C170.979 12.8971 170.824 13.1121 170.629 13.2907C170.238 13.6624 169.715 13.8701 169.173 13.8701C168.627 13.8701 168.108 13.6624 167.717 13.2907ZM170.813 27.8311H167.54V15.787H170.813V27.8311Z" fill="#6D4AFF"/>
<path d="M176.475 27.831H173.198V10.3533H176.475V27.831Z" fill="#6D4AFF"/>
<path fill-rule="evenodd" clip-rule="evenodd" d="M32.887 9.9429V33.5074H36.8215C38.879 33.5074 40.5461 31.8293 40.5461 29.763V5.32611C40.5461 4.6201 39.7292 4.23567 39.1879 4.68663L32.887 9.9429Z" fill="url(#paint0_linear_36_16)"/>
<path fill-rule="evenodd" clip-rule="evenodd" d="M27.3994 14.5266L20.2113 20.9103C18.9857 21.9971 17.1565 22.0229 15.9015 20.9731L4.52499 11.466V5.33C4.52499 4.62399 5.34207 4.23587 5.8831 4.68683L20.1561 16.5966C21.5363 17.7499 23.5385 17.7499 24.9187 16.5966L27.3994 14.5266Z" fill="url(#paint1_linear_36_16)"/>
<path d="M32.887 9.94653L27.3994 14.5264L27.403 14.5264L20.2113 20.9101C18.9857 21.9968 17.1565 22.0227 15.9015 20.9729L4.52499 11.4658V29.7629C4.52499 31.8292 6.19226 33.5074 8.24968 33.5074H32.887V9.94653Z" fill="url(#paint2_radial_36_16)"/>
<defs>
<linearGradient id="paint0_linear_36_16" x1="94.9092" y1="52.3179" x2="87.6478" y2="-20.2834" gradientUnits="userSpaceOnUse">
<stop offset="0.271" stop-color="#E3D9FF"/>
<stop offset="1" stop-color="#7341FF"/>
</linearGradient>
<linearGradient id="paint1_linear_36_16" x1="25.8096" y1="33.777" x2="11.0312" y2="-25.0049" gradientUnits="userSpaceOnUse">
<stop stop-color="#E3D9FF"/>
<stop offset="1" stop-color="#7341FF"/>
</linearGradient>
<radialGradient id="paint2_radial_36_16" cx="0" cy="0" r="1" gradientUnits="userSpaceOnUse" gradientTransform="translate(40.3891 8.04406) scale(42.0068 42.1882)">
<stop offset="0.5561" stop-color="#6D4AFF"/>
<stop offset="0.9944" stop-color="#AA8EFF"/>
</radialGradient>
</defs>
</svg>
